{
    "asset" : {
        "generator" : "Khronos glTF Blender I/O v1.4.40",
        "version" : "2.0"
    },
    "scene" : 0,
    "scenes" : [
        {
            "name" : "Scene",
            "nodes" : [
                24
            ]
        }
    ],
    "nodes" : [
        {
            "name" : "head",
            "rotation" : [
                -0.005868316162377596,
                -0.03235439211130142,
                0.17837534844875336,
                0.9834129214286804
            ],
            "scale" : [
                1,
                0.9999998807907104,
                0.9999999403953552
            ],
            "translation" : [
                -8.390830998905585e-07,
                0.8699913620948792,
                -6.119462270248732e-09
            ]
        },
        {
            "children" : [
                0
            ],
            "name" : "neck",
            "rotation" : [
                0.0058683170937001705,
                0.032354407012462616,
                -0.17837531864643097,
                0.9834129214286804
            ],
            "scale" : [
                1.0000001192092896,
                1.0000001192092896,
                1
            ],
            "translation" : [
                -7.876907943682454e-07,
                0.8455898761749268,
                6.108022887474363e-08
            ]
        },
        {
            "name" : "arm.L",
            "rotation" : [
                -0.005415197927504778,
                -0.06393364816904068,
                0.03169526532292366,
                0.9974360466003418
            ],
            "scale" : [
                1.0000001192092896,
                1.000000238418579,
                1.0000001192092896
            ],
            "translation" : [
                -8.750136260005092e-08,
                2.5093555450439453,
                -1.041854389427499e-07
            ]
        },
        {
            "children" : [
                2
            ],
            "name" : "shoulder.L",
            "rotation" : [
                -0.6242251396179199,
                0.16047383844852448,
                -0.7533369064331055,
                0.13066960871219635
            ],
            "scale" : [
                1.0000001192092896,
                1,
                0.9999999403953552
            ],
            "translation" : [
                0.9536585211753845,
                0.5445364117622375,
                -1.9066758155822754
            ]
        },
        {
            "name" : "arm.R",
            "rotation" : [
                -0.005415198393166065,
                0.06393367797136307,
                -0.031695276498794556,
                0.9974361062049866
            ],
            "scale" : [
                1.000000238418579,
                1.000000238418579,
                1.0000001192092896
            ],
            "translation" : [
                3.351065203105463e-08,
                2.509355068206787,
                -7.859806316901086e-08
            ]
        },
        {
            "children" : [
                4
            ],
            "name" : "shoulder.R",
            "rotation" : [
                0.7574453949928284,
                0.11354690790176392,
                0.6275646090507507,
                0.13980796933174133
            ],
            "scale" : [
                1.0000001192092896,
                1.0000001192092896,
                1.0000001192092896
            ],
            "translation" : [
                0.9536644816398621,
                0.544536828994751,
                1.9066733121871948
            ]
        },
        {
            "children" : [
                1,
                3,
                5
            ],
            "name" : "spine",
            "rotation" : [
                6.27555200480856e-05,
                -0.001579802599735558,
                -0.03973100706934929,
                0.9992091655731201
            ],
            "scale" : [
                1,
                0.9999998211860657,
                1
            ],
            "translation" : [
                1.507861924210374e-08,
                1.6002562046051025,
                1.397353344145813e-10
            ]
        },
        {
            "children" : [
                6
            ],
            "name" : "back",
            "rotation" : [
                -0.5202903151512146,
                -0.47898024320602417,
                0.5186498165130615,
                0.48049789667129517
            ],
            "scale" : [
                0.9999999403953552,
                0.9999999403953552,
                1.0000001192092896
            ],
            "translation" : [
                1.2530679271982592e-10,
                1.2262293100357056,
                -5.324223728564448e-09
            ]
        },
        {
            "name" : "taill.07",
            "rotation" : [
                -0.04687681049108505,
                -0.002120726741850376,
                0.08488553762435913,
                0.995285153388977
            ],
            "scale" : [
                0.9999998807907104,
                0.9999993443489075,
                0.9999995827674866
            ],
            "translation" : [
                1.2361742562916334e-07,
                1.3237296342849731,
                -4.823542099074984e-07
            ]
        },
        {
            "children" : [
                8
            ],
            "name" : "taill.06",
            "rotation" : [
                -0.08793459087610245,
                -0.011448622681200504,
                0.16115136444568634,
                0.9829378724098206
            ],
            "scale" : [
                1.0000005960464478,
                1,
                0.9999999403953552
            ],
            "translation" : [
                1.0650905046816206e-08,
                1.3578945398330688,
                2.030971018029959e-07
            ]
        },
        {
            "children" : [
                9
            ],
            "name" : "taill.05",
            "rotation" : [
                -0.11701150983572006,
                -0.028961991891264915,
                0.22855743765830994,
                0.9660388231277466
            ],
            "scale" : [
                1.0000001192092896,
                0.9999998807907104,
                0.9999995827674866
            ],
            "translation" : [
                -7.047810157700951e-08,
                1.3550474643707275,
                -6.958806011425622e-07
            ]
        },
        {
            "children" : [
                10
            ],
            "name" : "taill.04",
            "rotation" : [
                -0.12604326009750366,
                -0.04523672163486481,
                0.27307918667793274,
                0.9526250958442688
            ],
            "scale" : [
                1,
                0.9999998211860657,
                0.9999995231628418
            ],
            "translation" : [
                2.0004401335427247e-07,
                1.3664346933364868,
                -7.331347546823963e-07
            ]
        },
        {
            "children" : [
                11
            ],
            "name" : "taill.03",
            "rotation" : [
                -0.12026848644018173,
                -0.05310956761240959,
                0.27222198247909546,
                0.9532104134559631
            ],
            "scale" : [
                1.0000001192092896,
                0.9999998211860657,
                1
            ],
            "translation" : [
                -1.7393759321748803e-07,
                1.3778201341629028,
                1.0877975142875584e-07
            ]
        },
        {
            "children" : [
                12
            ],
            "name" : "taill.02",
            "rotation" : [
                -0.10943447053432465,
                -0.05734120309352875,
                0.20967911183834076,
                0.9699333906173706
            ],
            "scale" : [
                1.0000001192092896,
                0.9999999403953552,
                0.9999998211860657
            ],
            "translation" : [
                5.257394519730951e-08,
                1.3548959493637085,
                1.7343720060125634e-07
            ]
        },
        {
            "children" : [
                13
            ],
            "name" : "tail.01",
            "rotation" : [
                -0.04246712848544121,
                -0.21043582260608673,
                0.09044954925775528,
                0.97248774766922
            ],
            "scale" : [
                0.9999998211860657,
                0.9999998211860657,
                0.9999997615814209
            ],
            "translation" : [
                1.0279489970344002e-07,
                1.6273077726364136,
                7.513643822676386e-07
            ]
        },
        {
            "children" : [
                14
            ],
            "name" : "taill.00",
            "rotation" : [
                0.29785194993019104,
                -0.5202128291130066,
                0.31597480177879333,
                0.7354065775871277
            ],
            "scale" : [
                0.9999999403953552,
                1.0000001192092896,
                0.9999998211860657
            ],
            "translation" : [
                2.035186774662634e-08,
                1.3264973163604736,
                2.2632633545072167e-07
            ]
        },
        {
            "name" : "foot.L",
            "rotation" : [
                -0.048239804804325104,
                -0.31640058755874634,
                -0.45034581422805786,
                0.8335179686546326
            ],
            "scale" : [
                0.9999999403953552,
                0.9999999403953552,
                0.9999999403953552
            ],
            "translation" : [
                4.963628796872399e-08,
                2.5980184078216553,
                -1.5235162464932728e-08
            ]
        },
        {
            "children" : [
                16
            ],
            "name" : "leg.L",
            "rotation" : [
                0.01298006996512413,
                -0.008566230535507202,
                -0.10619273781776428,
                0.994223952293396
            ],
            "scale" : [
                1,
                0.9999999403953552,
                0.9999999403953552
            ],
            "translation" : [
                3.2863866294974287e-08,
                3.029481887817383,
                1.7438611621400923e-07
            ]
        },
        {
            "children" : [
                17
            ],
            "name" : "Hip.L",
            "rotation" : [
                0.024019945412874222,
                0.13707304000854492,
                -0.009239984676241875,
                0.9902266263961792
            ],
            "scale" : [
                1,
                0.9999999403953552,
                1
            ],
            "translation" : [
                0.5198941230773926,
                1.9155247211456299,
                0.9509069919586182
            ]
        },
        {
            "name" : "foot.R",
            "rotation" : [
                -0.04823974519968033,
                0.31640052795410156,
                0.45034584403038025,
                0.8335180282592773
            ],
            "scale" : [
                0.9999997615814209,
                1,
                0.9999998211860657
            ],
            "translation" : [
                6.263221052904555e-10,
                2.5980186462402344,
                6.067303814916158e-08
            ]
        },
        {
            "children" : [
                19
            ],
            "name" : "leg.R",
            "rotation" : [
                0.012980115599930286,
                0.008566206321120262,
                0.1061926931142807,
                0.994223952293396
            ],
            "scale" : [
                1,
                0.9999999403953552,
                0.9999998807907104
            ],
            "translation" : [
                -8.402429330089944e-08,
                3.029482126235962,
                2.9920425959062413e-07
            ]
        },
        {
            "children" : [
                20
            ],
            "name" : "Hip.R",
            "rotation" : [
                0.009196704253554344,
                0.9904718995094299,
                -0.024036500602960587,
                0.1352892965078354
            ],
            "scale" : [
                1.0000001192092896,
                0.9999999403953552,
                1.0000001192092896
            ],
            "translation" : [
                0.5164656639099121,
                1.9155244827270508,
                -0.9527737498283386
            ]
        },
        {
            "children" : [
                15,
                18,
                21
            ],
            "name" : "waist",
            "rotation" : [
                0.5152266025543213,
                0.4843519330024719,
                0.5142982006072998,
                0.4852237403392792
            ],
            "scale" : [
                1,
                1.000000238418579,
                1.000000238418579
            ],
            "translation" : [
                1.8989254613188677e-12,
                1.226229190826416,
                4.7598027208550775e-07
            ]
        },
        {
            "children" : [
                7,
                22
            ],
            "name" : "root",
            "rotation" : [
                8.791364507487742e-07,
                -0.7071068286895752,
                0.7071068286895752,
                -9.135076197708258e-07
            ],
            "scale" : [
                1,
                0.9999997019767761,
                1
            ],
            "translation" : [
                -1.1920808162813046e-07,
                7.973540306091309,
                1.7583119869232178
            ]
        },
        {
            "mesh" : 0,
            "name" : "lizardman.mesh",
            "skin" : 0
        },
        {
            "children" : [
                24,
                23
            ],
            "name" : "lizardman"
        }
    ],
    "meshes" : [
        {
            "name" : "lizardman",
            "primitives" : [
                {
                    "attributes" : {
                        "POSITION" : 0,
                        "NORMAL" : 1,
                        "JOINTS_0" : 2,
                        "WEIGHTS_0" : 3
                    },
                    "indices" : 4
                }
            ]
        }
    ],
    "skins" : [
        {
            "inverseBindMatrices" : 5,
            "joints" : [
                23,
                7,
                6,
                1,
                0,
                3,
                2,
                5,
                4,
                22,
                15,
                14,
                13,
                12,
                11,
                10,
                9,
                8,
                18,
                17,
                16,
                21,
                20,
                19
            ],
            "name" : "lizardman"
        }
    ],
    "accessors" : [
        {
            "bufferView" : 0,
            "componentType" : 5126,
            "count" : 1144,
            "max" : [
                8.344521522521973,
                13.015823364257812,
                12.65132999420166
            ],
            "min" : [
                -8.344521522521973,
                0.00011489259486552328,
                -1.7988569736480713
            ],
            "type" : "VEC3"
        },
        {
            "bufferView" : 1,
            "componentType" : 5126,
            "count" : 1144,
            "type" : "VEC3"
        },
        {
            "bufferView" : 2,
            "componentType" : 5121,
            "count" : 1144,
            "type" : "VEC4"
        },
        {
            "bufferView" : 3,
            "componentType" : 5126,
            "count" : 1144,
            "type" : "VEC4"
        },
        {
            "bufferView" : 4,
            "componentType" : 5123,
            "count" : 1668,
            "type" : "SCALAR"
        },
        {
            "bufferView" : 5,
            "componentType" : 5126,
            "count" : 24,
            "type" : "MAT4"
        }
    ],
    "bufferViews" : [
        {
            "buffer" : 0,
            "byteLength" : 13728,
            "byteOffset" : 0
        },
        {
            "buffer" : 0,
            "byteLength" : 13728,
            "byteOffset" : 13728
        },
        {
            "buffer" : 0,
            "byteLength" : 4576,
            "byteOffset" : 27456
        },
        {
            "buffer" : 0,
            "byteLength" : 18304,
            "byteOffset" : 32032
        },
        {
            "buffer" : 0,
            "byteLength" : 3336,
            "byteOffset" : 50336
        },
        {
            "buffer" : 0,
            "byteLength" : 1536,
            "byteOffset" : 53672
        }
    ],
    "buffers" : [
        {
            "byteLength" : 55208,
            "uri" : "data:application/octet-stream;base64,"
        }
    ]
}
